<svg width="145" height="145" xmlns="http://www.w3.org/2000/svg">
 <!-- Created with SVG Editor - http://github.com/mzalive/SVG Editor/ -->

 <g>
  <title>background</title>
  <rect fill="#fff" id="canvas_background" height="147" width="147" y="-1" x="-1"/>
  <g display="none" overflow="visible" y="0" x="0" height="100%" width="100%" id="canvasGrid">
   <rect fill="url(#gridpattern)" stroke-width="0" y="0" x="0" height="100%" width="100%"/>
  </g>
 </g>
 <g>
  <title>Layer 1</title>
  <g id="svg_18">
   <g transform="matrix(1.7652927602979531,0,0,1.7652927602979531,0,0) " id="svg_14">
    <path id="svg_15" fill="#231F20" d="m41.266,0c-22.754,0 -41.266,18.514 -41.266,41.271c0,22.761 18.512,41.277 41.266,41.277c22.759,0 41.274,-18.517 41.274,-41.277c0.001,-22.757 -18.515,-41.271 -41.274,-41.271zm0,79.548c-21.1,0 -38.266,-17.171 -38.266,-38.277c0,-21.103 17.166,-38.271 38.266,-38.271c21.104,0 38.274,17.168 38.274,38.271c0.001,21.106 -17.169,38.277 -38.274,38.277z"/>
    <path id="svg_16" fill="#231F20" d="m48.925,20.116l-23.77,0c-0.828,0 -1.5,0.671 -1.5,1.5l0,41.604c0,0.828 0.672,1.5 1.5,1.5l11.885,0c0.828,0 1.5,-0.672 1.5,-1.5l0,-14.933l10.385,0c7.767,0 14.086,-6.319 14.086,-14.086s-6.319,-14.085 -14.086,-14.085zm0,25.172l-11.885,0c-0.828,0 -1.5,0.672 -1.5,1.5l0,14.933l-8.885,0l0,-38.604l22.27,0c6.113,0 11.086,4.973 11.086,11.086s-4.972,11.085 -11.086,11.085z"/>
    <path id="svg_17" fill="#231F20" d="m48.925,28.007l-11.877,0c-0.828,0 -1.5,0.672 -1.5,1.5l0,8.057c0,0.828 0.672,1.5 1.5,1.5l11.877,0c0.828,0 1.5,-0.672 1.5,-1.5l0,-8.057c0,-0.828 -0.671,-1.5 -1.5,-1.5zm-1.5,8.056l-8.877,0l0,-5.057l8.877,0l0,5.057z"/>
   </g>
  </g>
 </g>
</svg>